<svg width="28" height="28" viewBox="0 0 28 28" fill="none" xmlns="http://www.w3.org/2000/svg">
<path d="M8.6665 22C7.19984 22 6.01317 23.2 6.01317 24.6667C6.01317 26.1334 7.19984 27.3334 8.6665 27.3334C10.1332 27.3334 11.3332 26.1334 11.3332 24.6667C11.3332 23.2 10.1332 22 8.6665 22ZM0.666504 0.666687V3.33335H3.33317L8.13317 13.4534L6.33317 16.72C6.11984 17.0934 5.99984 17.5334 5.99984 18C5.99984 19.4667 7.19984 20.6667 8.6665 20.6667H24.6665V18H9.2265C9.03984 18 8.89317 17.8534 8.89317 17.6667L8.93317 17.5067L10.1332 15.3334H20.0665C21.0665 15.3334 21.9465 14.7867 22.3998 13.96L27.1732 5.30669C27.2798 5.12002 27.3332 4.89335 27.3332 4.66669C27.3332 3.93335 26.7332 3.33335 25.9998 3.33335H6.27984L5.0265 0.666687H0.666504ZM21.9998 22C20.5332 22 19.3465 23.2 19.3465 24.6667C19.3465 26.1334 20.5332 27.3334 21.9998 27.3334C23.4665 27.3334 24.6665 26.1334 24.6665 24.6667C24.6665 23.2 23.4665 22 21.9998 22Z" fill="#275742"/>
</svg>
